<?xml version="1.0" encoding="utf-8"?>
<!-- Generator: Adobe Illustrator 24.1.2, SVG Export Plug-In . SVG Version: 6.00 Build 0)  -->
<svg version="1.1" id="Warstwa_1" xmlns="http://www.w3.org/2000/svg" xmlns:xlink="http://www.w3.org/1999/xlink" x="0px" y="0px"
	 viewBox="0 0 841.9 226.8" style="enable-background:new 0 0 841.9 226.8;" xml:space="preserve">
<style type="text/css">
	.st0{fill:#010202;}
	.st1{fill:none;stroke:#010202;stroke-miterlimit:10;}
	.st2{fill:none;stroke:#010202;stroke-linecap:round;stroke-linejoin:round;stroke-miterlimit:10;}
	.st3{fill:none;stroke:#010202;stroke-width:0.7087;stroke-linecap:round;stroke-linejoin:round;stroke-miterlimit:10;}
	.st4{fill:#010202;stroke:#010202;stroke-width:0.7087;stroke-linecap:round;stroke-linejoin:round;stroke-miterlimit:10;}
</style>
<g>
	<g>
		<g id="XMLID_4_">
			<g>
				<path class="st0" d="M7.9,55.5C24.4,15,70.7-4.5,111.2,12.1l-3.2,7.9C71.8,5.2,30.5,22.5,15.7,58.7s2.6,77.5,38.8,92.3
					c34.2,13.9,73.4-0.7,90-33.7l7.6,3.8c-18.6,36.9-62.5,53.4-100.8,37.7C10.8,142.3-8.6,96.1,7.9,55.5z"/>
			</g>
			<g>
				<path class="st1" d="M111.2,12.1C70.7-4.5,24.4,15,7.9,55.5c-16.5,40.5,2.9,86.8,43.4,103.3c38.3,15.6,82.2-0.8,100.8-37.7"/>
				<path class="st2" d="M108,19.9C71.8,5.2,30.5,22.5,15.7,58.7s2.6,77.5,38.8,92.3c34.2,13.9,73.4-0.7,90-33.7"/>
				<line class="st2" x1="108" y1="19.9" x2="111.2" y2="12.1"/>
				<line class="st2" x1="144.5" y1="117.3" x2="152.1" y2="121.1"/>
			</g>
		</g>
	</g>
	<g id="LWPOLYLINE_7_">
		<g id="XMLID_2_">
			<g>
				<path class="st0" d="M256.7,14.4c-39.1,1.2-69.8,33.9-68.5,73c1.2,39.1,33.9,69.8,73,68.5s69.8-33.9,68.6-73
					c-0.7-22.5-12.1-43.4-30.6-56.1l4.8-7c20.8,14.3,33.5,37.6,34.3,62.8c1.4,43.8-33,80.3-76.8,81.7c-43.8,1.4-80.3-33-81.7-76.8
					c-1.4-43.8,33-80.3,76.8-81.7L256.7,14.4z"/>
			</g>
			<g>
				<path class="st1" d="M256.4,6c-43.8,1.4-78.1,37.9-76.8,81.7c1.4,43.8,37.9,78.1,81.7,76.8c43.8-1.4,78.1-37.9,76.8-81.7
					c-0.8-25.2-13.5-48.5-34.3-62.8"/>
				<path class="st1" d="M256.7,14.4c-39.1,1.2-69.8,33.9-68.5,73c1.2,39.1,33.9,69.8,73,68.5s69.8-33.9,68.6-73
					c-0.7-22.5-12.1-43.4-30.6-56.1"/>
				<line class="st1" x1="256.7" y1="14.4" x2="256.4" y2="6"/>
				<line class="st1" x1="299" y1="26.9" x2="303.8" y2="19.9"/>
			</g>
		</g>
	</g>
	<g id="LWPOLYLINE_8_">
		<g id="XMLID_3_">
			<g>
				<path class="st0" d="M386,5.6c43.8,0.2,79.1,35.8,79,79.5l-8.5,0c0.1-35.9-26.7-66.2-62.3-70.5v161.9h-8.5V5.6
					C385.9,5.6,386,5.6,386,5.6z"/>
			</g>
			<g>
				<path class="st2" d="M465,85.2c0.1-43.8-35.2-79.4-79-79.5c-0.1,0-0.2,0-0.3,0"/>
				<path class="st2" d="M456.6,85.2c0.1-35.9-26.7-66.2-62.3-70.5"/>
				<line class="st2" x1="385.8" y1="176.5" x2="385.8" y2="5.6"/>
				<line class="st2" x1="394.2" y1="176.5" x2="394.2" y2="14.6"/>
				<line class="st2" x1="456.6" y1="85.2" x2="465" y2="85.2"/>
				<line class="st2" x1="385.8" y1="176.5" x2="394.2" y2="176.5"/>
			</g>
		</g>
	</g>
	<g id="XMLID_5_">
		<g>
			<path class="st0" d="M574.5,14.3c-32.8,3.7-58.7,29.6-62.4,62.4h140.7C648.4,37.9,613.3,9.9,574.5,14.3z M503.1,84.1
				c0.3-43.8,36.1-79,79.8-78.7c43.8,0.3,79,36,78.7,79.8h-150c0.3,39.1,32.2,70.5,71.3,70.2c0.2,0,0.3,0,0.5,0l0.1,8.5
				c-0.5,0-1.1,0-1.6,0C538.1,163.6,502.8,127.8,503.1,84.1z"/>
		</g>
		<g>
			<path class="st3" d="M661.7,85.2C662,41.4,626.7,5.7,583,5.4c-43.8-0.3-79.5,34.9-79.8,78.7s34.9,79.5,78.7,79.8
				c0.5,0,1.1,0,1.6,0"/>
			<path class="st3" d="M652.8,76.7c-4.4-38.8-39.4-66.8-78.3-62.4c-32.8,3.7-58.7,29.6-62.4,62.4"/>
			<path class="st3" d="M511.6,85.1C511.6,85.2,511.6,85.2,511.6,85.1c0.3,39.1,32.2,70.5,71.3,70.3c0.2,0,0.3,0,0.5,0c0,0,0,0,0,0"
				/>
			<line class="st3" x1="511.6" y1="85.2" x2="661.7" y2="85.2"/>
			<line class="st3" x1="512.1" y1="76.7" x2="652.8" y2="76.7"/>
			<line class="st3" x1="583.4" y1="155.4" x2="583.5" y2="163.9"/>
		</g>
	</g>
	<g id="CIRCLE">
		<path class="st4" d="M250.4,85.2c0-4.7,3.8-8.5,8.5-8.5s8.5,3.8,8.5,8.5s-3.8,8.5-8.5,8.5S250.4,89.9,250.4,85.2L250.4,85.2z"/>
	</g>
	<path class="st0" d="M533.3,218.1c1.6,1,4,1.8,6.5,1.8c3.7,0,5.9-2,5.9-4.8c0-2.6-1.5-4.1-5.3-5.6c-4.6-1.6-7.5-4-7.5-8
		c0-4.4,3.6-7.7,9.1-7.7c2.9,0,5,0.7,6.2,1.4l-1,3c-0.9-0.5-2.8-1.3-5.4-1.3c-3.9,0-5.3,2.3-5.3,4.2c0,2.6,1.7,3.9,5.6,5.4
		c4.8,1.8,7.2,4.1,7.2,8.3c0,4.4-3.2,8.1-9.9,8.1c-2.7,0-5.7-0.8-7.2-1.8L533.3,218.1z"/>
	<path class="st0" d="M559.8,197.5h-8.6v-3.1h20.9v3.1h-8.6v25.1h-3.7V197.5z"/>
	<path class="st0" d="M578.9,194.4v16.7c0,6.3,2.8,9,6.6,9c4.2,0,6.9-2.8,6.9-9v-16.7h3.7v16.5c0,8.7-4.6,12.2-10.7,12.2
		c-5.8,0-10.1-3.3-10.1-12.1v-16.6H578.9z"/>
	<path class="st0" d="M602.4,194.7c2.2-0.3,4.9-0.6,7.7-0.6c5.2,0,9,1.2,11.4,3.5c2.5,2.3,4,5.6,4,10.1c0,4.6-1.4,8.4-4.1,11
		c-2.6,2.6-7,4.1-12.5,4.1c-2.6,0-4.8-0.1-6.6-0.3V194.7z M606,219.7c0.9,0.2,2.3,0.2,3.7,0.2c7.8,0,12-4.4,12-12
		c0-6.7-3.7-10.9-11.4-10.9c-1.9,0-3.3,0.2-4.3,0.4V219.7z"/>
	<path class="st0" d="M633.9,194.4v28.2h-3.6v-28.2H633.9z"/>
	<path class="st0" d="M664.4,208.2c0,9.7-5.9,14.9-13.1,14.9c-7.5,0-12.7-5.8-12.7-14.3c0-9,5.6-14.8,13.1-14.8
		C659.5,193.9,664.4,199.8,664.4,208.2z M642.5,208.6c0,6,3.3,11.4,9,11.4c5.8,0,9-5.3,9-11.7c0-5.6-2.9-11.5-9-11.5
		C645.6,196.9,642.5,202.4,642.5,208.6z"/>
	<path class="st0" d="M709.7,194.7c2.2-0.3,4.9-0.6,7.7-0.6c5.2,0,9,1.2,11.4,3.5c2.5,2.3,4,5.6,4,10.1c0,4.6-1.4,8.4-4.1,11
		c-2.6,2.6-7,4.1-12.5,4.1c-2.6,0-4.8-0.1-6.6-0.3V194.7z M713.3,219.7c0.9,0.2,2.3,0.2,3.7,0.2c7.8,0,12-4.4,12-12
		c0-6.7-3.7-10.9-11.4-10.9c-1.9,0-3.3,0.2-4.3,0.4V219.7z"/>
	<path class="st0" d="M752.2,209.3h-11v10.2h12.2v3.1h-15.9v-28.2h15.2v3.1h-11.6v8.9h11V209.3z"/>
	<path class="st0" d="M757.7,218.1c1.6,1,4,1.8,6.5,1.8c3.7,0,5.9-2,5.9-4.8c0-2.6-1.5-4.1-5.3-5.6c-4.6-1.6-7.5-4-7.5-8
		c0-4.4,3.6-7.7,9.1-7.7c2.9,0,5,0.7,6.2,1.4l-1,3c-0.9-0.5-2.8-1.3-5.4-1.3c-3.9,0-5.3,2.3-5.3,4.2c0,2.6,1.7,3.9,5.6,5.4
		c4.8,1.8,7.2,4.1,7.2,8.3c0,4.4-3.2,8.1-9.9,8.1c-2.7,0-5.7-0.8-7.2-1.8L757.7,218.1z"/>
	<path class="st0" d="M782.5,194.4v28.2h-3.6v-28.2H782.5z"/>
	<path class="st0" d="M810.4,221.3c-1.6,0.6-4.9,1.5-8.7,1.5c-4.3,0-7.8-1.1-10.6-3.7c-2.4-2.3-3.9-6.1-3.9-10.5
		c0-8.4,5.8-14.6,15.3-14.6c3.3,0,5.8,0.7,7,1.3l-0.9,3c-1.5-0.7-3.4-1.2-6.2-1.2c-6.9,0-11.4,4.3-11.4,11.4
		c0,7.2,4.3,11.4,10.9,11.4c2.4,0,4-0.3,4.9-0.8v-8.4h-5.7v-2.9h9.3V221.3z"/>
	<path class="st0" d="M815.9,222.6v-28.2h4l9,14.3c2.1,3.3,3.7,6.3,5.1,9.2l0.1,0c-0.3-3.8-0.4-7.2-0.4-11.6v-11.8h3.4v28.2h-3.7
		l-9-14.3c-2-3.1-3.9-6.4-5.3-9.4l-0.1,0c0.2,3.6,0.3,7,0.3,11.6v12.1H815.9z"/>
	<g id="LWPOLYLINE_14_">
		<g id="XMLID_1_">
			<g>
				<path class="st0" d="M680.7,83.5c0.5-43.8,36.3-78.9,80.1-78.4c43.8,0.5,78.9,36.3,78.4,80.1v78.7h-8.5V85.2v0
					c0.4-39.1-30.9-71.1-70-71.6c-39.1-0.4-71.1,30.9-71.6,70c0,0.5,0,1,0,1.5v0.1v78.7h-8.5V85.2C680.7,84.6,680.7,84.1,680.7,83.5
					z"/>
			</g>
			<g>
				<path class="st1" d="M839.2,85.2c0.5-43.8-34.7-79.6-78.4-80.1c-43.8-0.5-79.6,34.6-80.1,78.4c0,0.6,0,1.1,0,1.7"/>
				<path class="st1" d="M830.8,85.1c0.4-39.1-30.9-71.1-70-71.6c-39.1-0.4-71.1,30.9-71.6,70c0,0.5,0,1,0,1.5"/>
				<polyline class="st1" points="680.7,85.2 680.7,163.9 689.2,163.9 				"/>
				<line class="st1" x1="689.2" y1="163.9" x2="689.2" y2="85.2"/>
				<polyline class="st1" points="830.8,163.9 839.2,163.9 839.2,85.2 				"/>
				<line class="st1" x1="830.8" y1="85.2" x2="830.8" y2="163.9"/>
			</g>
		</g>
	</g>
	<g id="CIRCLE_1_">
		<path class="st4" d="M676.1,208.3c0-4.7,3.8-8.5,8.5-8.5s8.5,3.8,8.5,8.5s-3.8,8.5-8.5,8.5S676.1,212.9,676.1,208.3L676.1,208.3z"
			/>
	</g>
</g>
</svg>
