<?xml version="1.0" encoding="utf-8"?>
<!-- Generator: Adobe Illustrator 24.1.2, SVG Export Plug-In . SVG Version: 6.00 Build 0)  -->
<svg version="1.1" id="Warstwa_1" xmlns="http://www.w3.org/2000/svg" xmlns:xlink="http://www.w3.org/1999/xlink" x="0px" y="0px"
	 viewBox="0 0 566.9 566.9" style="enable-background:new 0 0 566.9 566.9;" xml:space="preserve">
<style type="text/css">
	.st0{fill:none;stroke:#000000;stroke-width:2;stroke-miterlimit:10;}
</style>
<g>
	
		<rect x="47.2" y="160.5" transform="matrix(0.8989 -0.4382 0.4382 0.8989 -64.4831 87.0943)" class="st0" width="218.6" height="45.4"/>
	<polygon class="st0" points="217,348.2 271.2,459.5 305.4,442.8 251.2,331.6 233.1,340.4 	"/>
	<polyline class="st0" points="254.7,135.4 265.9,129.9 278.8,156.4 189.8,249.1 233.1,340.4 	"/>
	<path class="st0" d="M303,166.6"/>
	<polygon class="st0" points="318.1,107.4 318.1,193.5 349.9,193.5 349.9,119.4 349.9,107.4 	"/>
	<path class="st0" d="M441.1,120.5"/>
	<path class="st0" d="M349.9,119.4l91.2,1c0,14.8,0,29.5,0,44.3c0,5.7,0,11.5,0,17.2c-19.8,0-39.6,0-59.4,0h-31.8"/>
	<path class="st0" d="M271.1,160.1"/>
	<rect x="372.3" y="331.6" class="st0" width="44.8" height="119.9"/>
	<line class="st0" x1="381.7" y1="182" x2="381.7" y2="331.6"/>
	<line class="st0" x1="407.2" y1="331.6" x2="407.2" y2="182"/>
	<path class="st0" d="M441.1,122c13.6,3.5,46.3,13.7,66.4,39.7c5.3,6.9,8.8,13.6,11.2,19.7"/>
	<path class="st0" d="M441.1,162.5c4.2-0.7,33.7-5,58.2,5.2c11,4.6,16.6,10.2,19.4,13.7"/>
</g>
<circle class="st0" cx="283.5" cy="283.5" r="283.5"/>
</svg>
