<?xml version="1.0" encoding="utf-8"?>
<!-- Generator: Adobe Illustrator 24.1.2, SVG Export Plug-In . SVG Version: 6.00 Build 0)  -->
<svg version="1.1" id="Warstwa_1" xmlns="http://www.w3.org/2000/svg" xmlns:xlink="http://www.w3.org/1999/xlink" x="0px" y="0px"
	 viewBox="0 0 566.9 566.9" style="enable-background:new 0 0 566.9 566.9;" xml:space="preserve">
<style type="text/css">
	.st0{fill:none;stroke:#000000;stroke-width:4;stroke-miterlimit:10;}
</style>
<circle class="st0" cx="283.5" cy="283.5" r="283.5"/>
<g>
	<ellipse class="st0" cx="283.7" cy="99" rx="83.3" ry="9.4"/>
	<path class="st0" d="M200.4,99.9c13.2,18.6,27.3,43.1,18.6,56.6c-3.5,5.4-8.3,5.5-16.5,9.3c-36.5,17-48.2,65.7-50.1,73.8
		c-4.2,17.6-3.3,31-2.1,47.3c3,43.3,17.6,76.2,30.1,103.9l0,0c8.6,17.4,17.2,34.9,25.8,52.3c-0.8,2.4-2.3,7.9-0.7,14.3
		c0,0,1,4.2,3.6,7.9c7.4,10.9,23.7,12.1,25.8,12.2h48.7"/>
	<path class="st0" d="M366.6,99.9c-13.2,18.6-27.3,43.1-18.6,56.6c3.5,5.4,8.3,5.5,16.5,9.3c36.5,17,48.2,65.7,50.1,73.8
		c4.2,17.6,3.3,31,2.1,47.3c-3,43.3-17.6,76.2-30.1,103.9l0,0c-8.6,17.4-17.2,34.9-25.8,52.3c0.8,2.4,2.3,7.9,0.7,14.3
		c0,0-1,4.2-3.6,7.9c-7.4,10.9-23.7,12.1-25.8,12.2h-48.7"/>
</g>
</svg>
